<?xml version="1.0" encoding="utf-8"?>
<!-- Generator: Adobe Illustrator 24.1.2, SVG Export Plug-In . SVG Version: 6.00 Build 0)  -->
<svg version="1.1" id="Layer_1" xmlns="http://www.w3.org/2000/svg" xmlns:xlink="http://www.w3.org/1999/xlink" x="0px" y="0px"
	 viewBox="0 0 111.3 122.9" style="enable-background:new 0 0 111.3 122.9;" xml:space="preserve">
<style type="text/css">
	.st0{fill-rule:evenodd;clip-rule:evenodd;fill:#426696;}
</style>
<g>
	<path class="st0" d="M93.4,19.3h10.4c2.1,0,3.9,0.8,5.3,2.2s2.2,3.2,2.2,5.3v88.6c0,2.1-0.8,3.9-2.2,5.3c-1.3,1.3-3.2,2.2-5.3,2.2
		H25.4c-2,0-3.9-0.8-5.3-2.2c-1.4-1.3-2.2-3.2-2.2-5.3v-11.9H7.5c-2.1,0-3.9-0.8-5.3-2.2S0,98.1,0,96.1V7.5c0-2.1,0.8-3.9,2.2-5.3
		S5.4,0,7.5,0h78.4c2.1,0,3.9,0.8,5.3,2.2s2.2,3.2,2.2,5.3L93.4,19.3L93.4,19.3L93.4,19.3z M48.5,44.5h-5.3c-1.9,0-3.4-1.5-3.4-3.4
		c0-7-1.8-14.7,6.8-16.9c3.9-1,4.9,3.3,0.8,3.6c-2.5,0.2-3,1.8-3.1,4.3h4.3c1.9,0,3.4,1.5,3.4,3.4V41C52,42.9,50.4,44.5,48.5,44.5
		L48.5,44.5L48.5,44.5z M32.4,44.5h-5.3c-1.9,0-3.4-1.5-3.4-3.4c0-7-1.8-14.7,6.8-16.9c3.9-1,4.9,3.3,0.8,3.6
		c-2.5,0.2-3,1.8-3.1,4.3h4.4c1.9,0,3.4,1.5,3.4,3.4V41C35.9,42.9,34.3,44.5,32.4,44.5L32.4,44.5L32.4,44.5z M60.5,41.3
		c-1.7,0-3.1-1.4-3.1-3.1s1.4-3.1,3.1-3.1h6.9c1.7,0,3.1,1.4,3.1,3.1s-1.4,3.1-3.1,3.1H60.5L60.5,41.3z M24.6,61.1
		c-1.7,0-3.1-1.4-3.1-3.1s1.4-3.1,3.1-3.1h44.2c1.7,0,3.1,1.4,3.1,3.1c0,1.7-1.4,3.1-3.1,3.1H24.6L24.6,61.1z M24.6,79.5
		c-1.7,0-3.1-1.4-3.1-3.1c0-1.7,1.4-3.1,3.1-3.1h44.2c1.7,0,3.1,1.4,3.1,3.1c0,1.7-1.4,3.1-3.1,3.1H24.6L24.6,79.5z M24.3,103.5
		v11.9c0,0.3,0.1,0.6,0.3,0.8c0.2,0.2,0.5,0.3,0.8,0.3h78.4c0.3,0,0.6-0.1,0.8-0.3c0.2-0.2,0.3-0.5,0.3-0.8V26.8
		c0-0.3-0.1-0.6-0.3-0.8c-0.2-0.2-0.5-0.3-0.8-0.3H93.4v70.3c0,2.1-0.8,3.9-2.2,5.3c-1.3,1.3-3.2,2.2-5.3,2.2L24.3,103.5L24.3,103.5
		L24.3,103.5z M85.9,6.4H7.5c-0.3,0-0.6,0.1-0.8,0.3C6.5,6.9,6.4,7.2,6.4,7.5v88.6c0,0.3,0.1,0.6,0.3,0.8c0.2,0.2,0.5,0.3,0.8,0.3
		h78.4c0.3,0,0.6-0.1,0.8-0.3c0.2-0.2,0.3-0.5,0.3-0.8V7.5c0-0.3-0.1-0.6-0.3-0.8C86.5,6.5,86.2,6.4,85.9,6.4L85.9,6.4L85.9,6.4z"/>
</g>
</svg>
