<?xml version="1.0" encoding="utf-8"?>
<!-- Generator: Adobe Illustrator 24.1.2, SVG Export Plug-In . SVG Version: 6.00 Build 0)  -->
<svg version="1.1" id="Layer_1" xmlns="http://www.w3.org/2000/svg" xmlns:xlink="http://www.w3.org/1999/xlink" x="0px" y="0px"
	 viewBox="0 0 122.9 120.1" style="enable-background:new 0 0 122.9 120.1;" xml:space="preserve">
<style type="text/css">
	.st0{fill-rule:evenodd;clip-rule:evenodd;fill:#426696;}
</style>
<path class="st0" d="M65.8,3.8c0-2.1,2.1-3.8,4.7-3.8s4.7,1.7,4.7,3.8v16.7c0,2.1-2.1,3.8-4.7,3.8s-4.7-1.7-4.7-3.8V3.8z
	 M122.9,56.8L81,120.1L48.5,99.3h-41c-4.2,0-7.5-3.4-7.5-7.5V17.4c0-4.2,3.4-7.5,7.5-7.5h9.1c1.4,0.1,2.5,1.3,2.4,2.7
	c-0.1,1.3-1.1,2.3-2.4,2.4H7.5c-0.6,0-1.2,0.2-1.7,0.7c-0.4,0.4-0.7,1-0.7,1.7v19.3h63.1l-3.4,5.2H5.1v49.9c0,0.6,0.2,1.2,0.7,1.7
	c0.4,0.4,1,0.7,1.7,0.6h38.9h3.4l24.4,15.5l0.3,0.2c2.3,1.4,5.4,0.7,6.9-1.6l1.3-2.2h0.1l6.3-10.2l28.7-42.2L122.9,56.8L122.9,56.8z
	 M13.6,73.7h10.7c0.7,0,1.2,0.5,1.2,1.2v7.9c0,0.7-0.6,1.2-1.2,1.2H13.6c-0.7,0-1.2-0.5-1.2-1.2v-7.9C12.3,74.2,12.9,73.6,13.6,73.7
	C13.6,73.6,13.6,73.6,13.6,73.7z M54.6,51.1h4.1l-5.4,8.2v-6.9C53.3,51.7,53.8,51.1,54.6,51.1L54.6,51.1z M34,51.1h10.7
	c0.7,0,1.3,0.5,1.3,1.2c0,0,0,0,0,0v7.9c0,0.7-0.6,1.2-1.2,1.2H34c-0.7,0-1.2-0.6-1.2-1.2v-7.9C32.8,51.7,33.3,51.1,34,51.1z
	 M13.5,51.1h10.7c0.7,0,1.2,0.6,1.2,1.2v7.9c0,0.7-0.6,1.2-1.2,1.2H13.6c-0.7,0-1.2-0.5-1.2-1.2v-7.9C12.3,51.7,12.9,51.1,13.5,51.1
	L13.5,51.1z M34,73.7h9.8l-5.3,8c-0.5,0.7-0.8,1.5-0.9,2.4H34c-0.7,0-1.2-0.6-1.2-1.2l0,0v-7.9C32.8,74.2,33.3,73.7,34,73.7
	C34,73.6,34,73.6,34,73.7z M23.9,3.8C23.9,1.7,26,0,28.6,0s4.7,1.7,4.7,3.8v16.7c0,2.1-2.1,3.8-4.7,3.8s-4.7-1.7-4.7-3.8
	C23.9,20.6,23.9,3.8,23.9,3.8z M94,19.8v-2.5c0-0.6-0.2-1.2-0.7-1.7c-0.4-0.4-1-0.7-1.6-0.7h-8.5c-1.4,0.1-2.7-1-2.7-2.4
	s1-2.7,2.4-2.7c0.1,0,0.2,0,0.3,0h8.5c4.2,0,7.5,3.4,7.5,7.5v5.8L94,19.8z M40.7,15c-1.4,0-2.6-1.2-2.6-2.6s1.2-2.6,2.6-2.6H58
	c1.4,0,2.6,1.2,2.6,2.6S59.5,15,58,15H40.7z M119,43.1l-41.9,63.3L43.7,85l41.9-63.3L119,43.1z M88.4,60.4c2.5,4.3,1,9.8-3.3,12.3
	c-4.3,2.5-9.8,1-12.3-3.3c-2.5-4.3-1-9.8,3.3-12.3C80.4,54.6,85.9,56,88.4,60.4C88.4,60.3,88.4,60.4,88.4,60.4z M107,50.6L78.9,92.3
	c-2.7-1.7-6.3-0.9-8.1,1.8l-13.2-8.4c1.7-2.7,0.9-6.4-1.8-8.1l28.1-41.8c2.7,1.7,6.3,0.9,8.1-1.8l13.2,8.5
	C103.5,45.2,104.3,48.8,107,50.6z"/>
</svg>
