<?xml version="1.0" encoding="utf-8"?>
<!-- Generator: Adobe Illustrator 24.1.2, SVG Export Plug-In . SVG Version: 6.00 Build 0)  -->
<svg version="1.1" id="Layer_1" xmlns="http://www.w3.org/2000/svg" xmlns:xlink="http://www.w3.org/1999/xlink" x="0px" y="0px"
	 viewBox="0 0 122.9 112" style="enable-background:new 0 0 122.9 112;" xml:space="preserve">
<style type="text/css">
	.st0{fill-rule:evenodd;clip-rule:evenodd;fill:#426696;}
</style>
<path class="st0" d="M81.8,101.6c0.4,0.7,0.6,1.4,0.6,2.2c0,4.1-6.3,7.3-14,7.3s-14-3.3-14-7.3c0-0.8,0.2-1.5,0.6-2.2
	c1.8,3,7.1,5.2,13.4,5.2S80.1,104.6,81.8,101.6L81.8,101.6z M87.9,55.4L86.6,48l-3-2.2l-7.1-1.3c0.2,0.4,0.5,0.8,0.7,1.2
	c1.3,1.7,2.2,3.7,2.8,5.7c0.6,3-0.5,5.6-5.6,7.4c0.1,0.1,0.3,0.2,0.4,0.3c2,1.5,2.4,3.7-1.8,9.3l-0.9,1.2c-1.2-0.1-2.4-0.2-3.7-0.2
	c-0.4,0-0.8,0-1.3,0c0.8-1.1,1.7-2.3,2.6-3.5c2.3-3,2.7-3.6,2.6-3.7c-0.3-0.2-0.5-0.3-0.8-0.4c-1.4-0.6-2.9-1.2-3.6-3.3
	c0-0.1-0.1-0.2-0.1-0.3c-0.2-1.1,0.4-2.1,1.5-2.4c0,0,0,0,0,0c5.5-1.2,6.9-2.4,6.6-3.7c-0.5-1.5-1.3-3-2.3-4.3
	c-1.1-1.6-2.1-3.4-2.9-5.2c-0.5-1-0.2-2.2,0.8-2.7c0.4-0.2,0.9-0.3,1.4-0.2L84.7,42l0,0c0.3,0.1,0.6,0.2,0.8,0.3l4,2.8
	c0.5,0.3,0.9,0.8,1,1.4l1.2,6.9c-0.8,0.3-1.6,0.7-2.4,1.1C88.9,54.8,88.4,55.1,87.9,55.4L87.9,55.4z M47.4,78.8v-0.3
	c0-0.6-0.1-1.1-0.3-1.7c-0.2-0.7-0.5-1.4-0.9-2.1c-0.5-0.9-0.9-1.6-1.2-2.2c-0.3-0.6-0.5-1.2-0.6-1.9c0-3.3-1.1-4.1-2.7-4.1
	c-1,0-2.1,0.1-3.1,0.3c-1.4,0.2-2.8,0.3-4.2,0.4c-1.2-0.1-2.3-0.6-3.1-1.4c-0.9-0.9-1.7-2-2.4-3.1c-0.7-1.2-1.3-2.2-1.7-2.9
	c-0.4-0.7-0.7-1.5-0.8-2.3v-1.6c-0.1-5.6-0.1-11,5.3-14.9c2.3-3.2,4.3-5.3,6.7-6.6s5.4-1.9,9.2-1.9c1.1,0,2,0.9,2,2v2.9l2.4,1.1
	v-0.2c0.2-1.1,1.3-1.8,2.3-1.6c0,0,0,0,0.1,0l0,0c0.7,0.1,1.4,0.3,2.1,0.6c0.6,0.2,1.2,0.5,1.7,0.8c0.4,0.2,0.8,0.4,1.3,0.4
	c0.6,0.1,1.2,0.1,1.8,0c0.2,0,0.4-0.1,0.6-0.2l0,0v-0.1c0-0.3,0.1-0.6,0.1-0.9l-2.4,0.2c-0.8,0.1-1.6-0.4-2-1.2l0,0
	c-0.8-1.7-2.5-2.5-4.6-3.6c-2.9-1.3-5.5-3.1-7.8-5.3c-9.7,3.5-12.8,4-13.5,1.8c-0.5-1.3,0.2-2.3,1.1-3.7s1.9-3,1.9-4.6
	c0-0.9,0.5-1.6,1.3-1.9l8.2-3.7l0,0c-0.9-0.1-2-0.4-2.9-4.8c-0.2-0.9,0.2-1.8,1-2.2l0,0C43.3,8,44,7.5,44.8,7
	c0.9-0.6,1.9-1.3,3.1-2.3l0.1,0c-4.1,0.6-8.2,1.8-12,3.4l0,0c-3.1,1.3-6.2,3-9,4.9c-2.8,1.8-5.3,4-7.7,6.3l0,0
	C17,21.7,14.8,24.2,13,27c-1.9,2.8-3.5,5.9-4.9,9v0.1c-1.3,3.1-2.3,6.4-3,9.7c-1.4,6.9-1.4,14.1,0,21c0,0.2,0.1,0.4,0.1,0.6l9.4,4.5
	c0.7,0.3,1.1,1,1.1,1.8l0,0c0,2.3-0.4,4.6-1.4,6.7c-0.7,1.6-1.1,3.2-1.2,4.9c0,0.2,0,0.4-0.1,0.6c1.8,2.7,3.9,5.2,6.2,7.5l0,0
	c2.3,2.4,4.9,4.5,7.6,6.3c2.8,1.9,5.9,3.5,9,4.8h0.1c3.1,1.3,6.3,2.3,9.6,3c0.5,1.6,1.2,3.2,2.3,4.5c-1-0.1-2-0.3-3-0.5
	c-3.6-0.7-7.1-1.8-10.5-3.3h-0.1c-3.4-1.4-6.6-3.2-9.6-5.2c-3-2-5.8-4.3-8.3-6.8l0,0c-2.5-2.5-4.8-5.3-6.8-8.3c-2-3-3.8-6.2-5.2-9.6
	l0,0c-1.5-3.4-2.6-7-3.3-10.7c-1.5-7.5-1.5-15.1,0-22.6c0.7-3.6,1.8-7.1,3.3-10.5c0,0,0-0.1,0-0.1c1.4-3.4,3.2-6.6,5.2-9.6
	c2-3,4.3-5.8,6.8-8.3l0,0c2.5-2.5,5.3-4.8,8.3-6.8c3-2,6.2-3.8,9.6-5.2l0,0c7-3,14.4-4.5,22-4.4c3.8,0,7.6,0.4,11.3,1.1
	c3.6,0.7,7.1,1.8,10.5,3.3h0.1c3.4,1.4,6.6,3.2,9.6,5.2c3,2,5.8,4.3,8.3,6.8l0,0c2.5,2.5,4.8,5.3,6.8,8.3c2,3,3.8,6.2,5.2,9.6l0,0
	c1.5,3.4,2.6,7,3.3,10.7c0.4,2.1,0.7,4.3,0.9,6.4c-2.2-0.4-4.5-0.6-6.7-0.6h-0.6c0.1-0.7,0.3-1.4,0.5-2c0.2-0.7,0.6-1.5,1.1-2.1
	c-0.3-1.9-0.7-3.8-1.2-5.7c-0.6-2.3-1.4-4.5-2.4-6.6c-1.9-4.2-4.4-8.2-7.3-11.8c-1.5-1.8-3.1-3.4-4.8-5c-1.7-1.6-3.5-3-5.4-4.3
	c-1.9-1.3-3.9-2.5-6-3.5l0,0c-1.9-1-3.9-1.8-5.9-2.5C66,9.1,63.8,8,61.4,6.9C59.8,6,57.9,5.6,56,5.7h-1.8c-0.4,0.1-0.8,0.2-1.1,0.4
	c-1,0.6-1.9,1.2-2.8,1.9C49.1,8.9,48,9.7,47,10.4c-0.6,0.4-1.1,0.7-1.6,1c1,0.2,1.7,0.8,2.2,5.4l0,0c0.1,0.9-0.4,1.7-1.2,2.1
	l-7.7,3.5c-0.4,2-1.3,3.9-2.5,5.5c0,0,0,0.1-0.1,0.1c2.7-1.9,5.7-3.5,8.9-4.6c0.8-0.3,1.7-0.2,2.3,0.5c2.2,2.2,4.8,4.1,7.7,5.4
	c2.4,1.2,4.3,2.2,5.7,4.2l3.3-0.3c0.1,0,0.2,0,0.4,0c1.1,0,2,0.9,2,2c0,0.6,0,1.3-0.1,1.9c0,0.6-0.1,1.3-0.2,1.9c0,0,0,0.1,0,0.1
	c-0.1,0.5-0.3,1-0.6,1.5c-0.8,1.1-1.9,1.8-3.2,2c-1.1,0.2-2.2,0.2-3.3,0c-1-0.1-1.9-0.5-2.8-1c-0.2-0.1-0.3-0.2-0.5-0.3l-0.1,0.4
	l0,0c0,0.1-0.1,0.3-0.1,0.4c-0.4,1-1.6,1.5-2.6,1.1c0,0,0,0-0.1,0L47,40.7c-0.8-0.3-1.4-1.1-1.4-1.9v-2.1c-1.8,0-3.6,0.5-5.3,1.3
	c-1.9,1-3.5,2.8-5.5,5.6c-0.1,0.2-0.3,0.4-0.6,0.6c-4,2.7-3.9,7.1-3.9,11.8c0,0.9,0,1.3,0,1.6c0,0.1,0.1,0.1,0.3,0.5
	c0.3,0.7,0.9,1.6,1.5,2.7c0.5,0.8,1,1.6,1.7,2.2l0.4,0.3c1.2,0,2.5-0.1,3.7-0.3c1.2-0.2,2.4-0.3,3.7-0.3c4,0,6.8,1.5,6.8,8.1
	c0,0.1,0-0.1,0.2,0.2c0.2,0.5,0.6,1.1,1,1.9c0.4,0.7,0.8,1.5,1.1,2.3C49.4,76.1,48.3,77.3,47.4,78.8L47.4,78.8z M8.9,76.8
	c0.4,1,0.9,2,1.4,3c0.1-0.3,0.2-0.5,0.3-0.8c0.5-1.3,0.9-2.6,1.1-4l-4.3-2C7.8,74.2,8.3,75.5,8.9,76.8L8.9,76.8z M93,53l4.1-7.4
	c0.4-1,1.6-1.5,2.6-1.1c0.6,0.2,1,0.7,1.2,1.3l1.6,5.1C99.2,51.2,96.1,51.9,93,53z M35.6,28c0.1,0.2,0.3,0.2,0.6,0H35.6z M122.1,99
	c0.5,0.8,0.8,1.7,0.8,2.7c0,5-7.7,9-17.2,9s-17.2-4-17.2-9c0-1,0.3-1.9,0.8-2.7c2.2,3.7,8.7,6.3,16.4,6.3S119.9,102.7,122.1,99z
	 M122.1,88.1c0.5,0.8,0.8,1.7,0.8,2.7c0,5-7.7,9-17.2,9s-17.2-4-17.2-9c0-1,0.3-1.9,0.8-2.7c2.2,3.7,8.7,6.3,16.4,6.3
	S119.9,91.8,122.1,88.1z M111.9,65.4l-0.2,2.2l-8.4-0.7c0.7,0.9,1.2,1.9,1.4,3l-2-0.2c-0.2-0.7-0.5-1.4-0.9-2
	c-0.4-0.7-1.1-1.2-1.8-1.5l0.2-1.8L111.9,65.4L111.9,65.4z M105.7,61.9c7.8,0,14.1,2.5,14.1,5.5s-6.3,5.6-14.1,5.6
	s-14.1-2.5-14.1-5.5S97.9,61.9,105.7,61.9L105.7,61.9z M105.7,60c9.5,0,17.2,4,17.2,9s-7.7,9-17.2,9s-17.2-4-17.2-9
	S96.2,60,105.7,60z M122.2,77.5c0.5,0.8,0.7,1.7,0.7,2.6c0,5-7.7,9-17.2,9s-17.2-4-17.2-9c0-0.9,0.3-1.8,0.7-2.6
	c2.1,3.7,8.7,6.4,16.4,6.4S120,81.2,122.2,77.5z M73.5,83.1l-0.2,1.8l-6.9-0.6c0.6,0.7,1,1.6,1.2,2.5L66,86.6
	c-0.2-0.6-0.4-1.1-0.8-1.6c-0.3-0.6-0.8-1-1.4-1.3l0.1-1.5L73.5,83.1L73.5,83.1z M68.4,80.2c6.4,0,11.5,2,11.5,4.5
	s-5.2,4.5-11.5,4.5s-11.5-2-11.5-4.5S62,80.2,68.4,80.2z M68.4,78.7c7.8,0,14,3.3,14,7.3s-6.3,7.4-14,7.4s-14-3.3-14-7.4
	S60.7,78.7,68.4,78.7z M81.8,93c0.4,0.6,0.6,1.4,0.6,2.1c0,4.1-6.3,7.4-14,7.4s-14-3.3-14-7.4c0-0.7,0.2-1.5,0.6-2.1
	c1.7,3,7.1,5.3,13.4,5.3S80.1,96,81.8,93z"/>
</svg>
