<?xml version="1.0" encoding="utf-8"?>
<!-- Generator: Adobe Illustrator 24.1.2, SVG Export Plug-In . SVG Version: 6.00 Build 0)  -->
<svg version="1.1" id="Layer_1" xmlns="http://www.w3.org/2000/svg" xmlns:xlink="http://www.w3.org/1999/xlink" x="0px" y="0px"
	 viewBox="0 0 122.9 112.1" style="enable-background:new 0 0 122.9 112.1;" xml:space="preserve">
<style type="text/css">
	.st0{fill:#426696;}
</style>
<path class="st0" d="M36,72.6c0,0.8-0.6,1.4-1.4,1.4c-0.8,0-1.4-0.6-1.4-1.4V35.4H2.9v71.1h5v2.9H1.4c-0.8,0-1.4-0.6-1.4-1.4
	c0,0,0,0,0,0V34.6c0-0.6,0.2-1.1,0.6-1.5c0.4-0.4,0.9-0.6,1.5-0.6h31v-30c0-0.7,0.3-1.3,0.7-1.8l0,0C34.3,0.3,35,0,35.7,0H87
	c0.7,0,1.3,0.3,1.8,0.7l0.1,0.1c0.4,0.5,0.6,1.1,0.6,1.7v30h31.2c0.6,0,1.1,0.2,1.5,0.6l0,0c0.4,0.4,0.6,0.9,0.6,1.5v73.3
	c0,0.8-0.6,1.4-1.4,1.4c0,0,0,0,0,0h-9.1v-2.9h7.7V35.4H89.5v36.7c0,0.8-0.6,1.4-1.4,1.4c-0.8,0-1.4-0.6-1.4-1.4V2.9H36V72.6z
	 M42.4,12.7H51c0.1,0,0.2,0.1,0.3,0.2v8.6c0,0.1-0.1,0.2-0.3,0.2h-8.6c-0.1,0-0.2-0.1-0.2-0.2c0,0,0,0,0,0v-8.6
	C42.1,12.8,42.2,12.7,42.4,12.7C42.4,12.7,42.4,12.7,42.4,12.7z M71.6,12.7h8.6c0.1,0,0.2,0.1,0.2,0.2v8.6c0,0.1-0.1,0.2-0.2,0.2
	h-8.3c-0.1,0-0.2-0.1-0.3-0.2v-8.6c0-0.1,0.1-0.2,0.3-0.2H71.6z M56.9,12.7h8.6c0.1,0,0.2,0.1,0.2,0.2v8.6c0,0.1-0.1,0.2-0.2,0.2
	h-8.6c-0.1,0-0.2-0.1-0.2-0.2v-8.6C56.6,12.8,56.7,12.7,56.9,12.7z M96.9,70.3h16.4v5.1H96.9L96.9,70.3L96.9,70.3z M9.4,70.3h16.4
	v5.1H9.5L9.4,70.3L9.4,70.3z M93.4,101.3c2.8,1,5.5,2.2,8.1,3.6c3.1,1.9,4,4.2,4.4,7.2h-20V108C88.7,108.4,94.1,106.7,93.4,101.3
	L93.4,101.3z M26.1,102c1.5,4.3,7.7,4.6,9.1,0c0.4,0.3,0.9,0.6,1.3,0.8c-0.2,0.4-0.4,0.8-0.5,1.3c-0.4,1.2-0.7,2.5-0.8,3.8l0,0
	c0,0,0,0.1,0,0.1l-0.3,4.2H14.8l0.3-2.7c0.1-1.2,0.4-2.3,1.1-3.3c0.4-0.5,0.9-1,1.5-1.3C19.5,103.8,24.4,103.5,26.1,102L26.1,102z
	 M24.8,91.4c-0.2,0-0.4,0.1-0.6,0.2c-0.1,0-0.1,0.1-0.2,0.2c0,0.1-0.1,0.2-0.1,0.3c0.1,0.6,0.3,1.1,0.7,1.6l0,0l1.4,2.3
	c0.5,0.9,1.2,1.7,1.9,2.4c0.7,0.7,1.7,1.1,2.6,1.1c1,0,2.1-0.4,2.8-1.1c0.8-0.8,1.4-1.7,1.9-2.7l1.6-2.6c0.3-0.7,0.4-1.2,0.3-1.4
	s-0.3-0.2-0.8-0.1c-0.3,0.1-0.6,0-0.9-0.2l0.8-2.4c-2.6,0.1-5.1-0.6-7.3-2c-0.8-0.5-1-1.1-1.8-1c-0.6,0.1-1.1,0.4-1.5,0.8
	c-0.4,0.5-0.7,1-0.8,1.7l0.5,2.9C25.4,91.6,25.1,91.6,24.8,91.4L24.8,91.4z M37.5,90.7c0.3,0.1,0.6,0.3,0.8,0.6
	c0.2,0.8,0.1,1.6-0.3,2.2l0,0v0.1l-1.6,2.7c-0.6,1-1.3,2-2.1,2.9c-0.9,0.9-2.2,1.4-3.5,1.4c-1.2,0-2.4-0.5-3.3-1.3
	c-0.8-0.8-1.5-1.7-2-2.7l-1.4-2.2c-0.5-0.6-0.7-1.3-0.8-2.1c0-0.3,0-0.5,0.1-0.8c0.1-0.2,0.3-0.5,0.5-0.6c0.1-0.1,0.3-0.1,0.4-0.2
	c-0.1-1.3-0.1-2.7-0.1-4c0-0.3,0.1-0.6,0.2-0.9c0.4-1.3,1.3-2.3,2.4-3c0.4-0.3,0.8-0.5,1.3-0.6c2.7-1,6.3-0.4,8.3,1.6
	c0.9,1,1.3,2.2,1.4,3.5L37.5,90.7L37.5,90.7z M51.7,80.7c-0.3,0-0.5,0.1-0.7,0.2c-0.1,0.1-0.2,0.2-0.3,0.3c-0.1,0.2-0.1,0.3-0.1,0.5
	c0.1,0.9,0.5,1.7,1,2.4l0,0l0,0l2.1,3.4c0.8,1.4,1.7,2.6,2.8,3.7c1.1,1,2.5,1.6,4,1.6c1.6,0,3.1-0.6,4.2-1.7c1.1-1.2,2.1-2.5,2.9-4
	l2.4-3.9c0.5-1.1,0.6-1.8,0.5-2s-0.5-0.3-1.2-0.2H69c-0.3,0-0.7-0.1-1-0.2l1.1-3.6c-7.2-0.1-13.3-5-15.7-2.4c-0.6,0.6-1,0.5-1.3,1.5
	l0.8,4.3C52.5,80.8,52,80.8,51.7,80.7L51.7,80.7z M53.7,96.4c2.9,8.5,11.1,8.2,13.7,0c1.5,1.3,4.3,2,7,2.7c6.5,1.6,8,3.6,8.6,10.3
	c0.1,0.8,0.2,1.7,0.2,2.7H37.8l0.3-4.6c0.1-1.8,0.6-3.5,1.7-5c0.6-0.8,1.4-1.4,2.3-1.9C44.8,99.1,51.2,98.6,53.7,96.4L53.7,96.4z
	 M70.7,79.6c0.5,0.1,0.9,0.5,1.1,0.9c0.4,0.7,0.2,1.8-0.4,3.3l0,0V84l-2.4,4c-0.9,1.6-1.9,3-3.2,4.3c-1.4,1.4-3.3,2.1-5.2,2.1
	c-1.8,0-3.6-0.7-5-2c-1.2-1.2-2.2-2.5-3.1-4l-2.1-3.4c-0.7-0.9-1.1-2-1.2-3.1c0-0.4,0.1-0.8,0.2-1.2c0.2-0.4,0.4-0.7,0.8-0.9
	c0.2-0.1,0.4-0.2,0.6-0.3c-0.1-2-0.2-3.9-0.1-5.9c0-0.5,0.1-0.9,0.3-1.4c0.6-1.9,1.9-3.5,3.6-4.5c0.6-0.4,1.2-0.7,1.9-0.9
	c4-1.5,9.4-0.7,12.3,2.4c1.3,1.4,2,3.3,2.1,5.2L70.7,79.6L70.7,79.6z M77.9,98h1.9h1.6c-1.8-5.6-1.2-10.7,3.1-15
	c0.8,2.6,2.7,4.7,5.2,5.8c1.4,1.1,2.7,2.3,3.9,3.6c0.2-0.9-0.6-2-1.7-3.2c1.1,0.5,1.9,1.3,2.4,2.4c0.6,1.3,0.8,2.9,0.5,4.3
	c-0.1,0.7-0.3,1.4-0.6,2.1h2.6c2.7-5.8,1-14.4-4.6-18.1c-1.7-1.1-2.9-1.1-4.9-1.1c-2.3,0-3.4,0.1-5.4,1.4c-2.9,1.9-4.7,5.2-5.4,9.8
	C76.4,92.3,76.3,96.3,77.9,98L77.9,98z M97.2,58.3h15.9c0.1,0,0.2,0.1,0.2,0.2v4.7c0,0.1-0.1,0.2-0.2,0.2H97.2
	c-0.1,0-0.2-0.1-0.2-0.2v-4.7C96.9,58.4,97,58.3,97.2,58.3z M97.2,46.1h15.9c0.1,0,0.2,0.1,0.2,0.2V51c0,0.1-0.1,0.2-0.2,0.2H97.2
	c-0.1,0-0.2-0.1-0.2-0.2v-4.7C96.9,46.2,97,46.1,97.2,46.1L97.2,46.1z M9.7,58.3h15.9c0.1,0,0.2,0.1,0.2,0.2v4.7
	c0,0.1-0.1,0.2-0.2,0.2H9.7c-0.1,0-0.2-0.1-0.2-0.2v-4.7C9.5,58.4,9.6,58.3,9.7,58.3z M9.7,46.1h15.9c0.1,0,0.2,0.1,0.2,0.2V51
	c0,0.1-0.1,0.2-0.2,0.2H9.7c-0.1,0-0.2-0.1-0.2-0.2v-4.7C9.5,46.2,9.6,46.1,9.7,46.1L9.7,46.1z M71.7,51h8.5c0.1,0,0.2,0.1,0.2,0.2
	v8.5c0,0.1-0.1,0.2-0.2,0.2h-8.5c-0.1,0-0.2-0.1-0.2-0.2v-8.5C71.4,51.1,71.5,51,71.7,51L71.7,51z M57.1,51h8.5
	c0.1,0,0.2,0.1,0.2,0.2v8.5c0,0.1-0.1,0.2-0.2,0.2h-8.5c-0.1,0-0.2-0.1-0.2-0.2v0v-8.5C56.8,51.1,56.9,51,57.1,51L57.1,51L57.1,51z
	 M42.5,51H51c0.1,0,0.2,0.1,0.2,0.2v0v8.5c0,0.1-0.1,0.2-0.2,0.2h0h-8.5c-0.1,0-0.2-0.1-0.2-0.2v0v-8.5C42.3,51.1,42.4,51,42.5,51
	L42.5,51L42.5,51z M71.7,30.7h8.5c0.1,0,0.2,0.1,0.2,0.2v8.5c0,0.1-0.1,0.2-0.2,0.2h-8.5c-0.1,0-0.2-0.1-0.2-0.2V31
	C71.4,30.9,71.5,30.8,71.7,30.7L71.7,30.7z M57.1,30.7h8.5c0.1,0,0.2,0.1,0.2,0.2v8.5c0,0.1-0.1,0.2-0.2,0.2h-8.5
	c-0.1,0-0.2-0.1-0.2-0.2v0V31C56.8,30.9,56.9,30.8,57.1,30.7L57.1,30.7L57.1,30.7z M42.5,30.7H51c0.1,0,0.2,0.1,0.2,0.2v0v8.5
	c0,0.1-0.1,0.2-0.2,0.2h0h-8.5c-0.1,0-0.2-0.1-0.2-0.2v0V31C42.3,30.9,42.4,30.8,42.5,30.7L42.5,30.7L42.5,30.7z"/>
</svg>
