<?xml version="1.0" encoding="utf-8"?>
<!-- Generator: Adobe Illustrator 24.1.2, SVG Export Plug-In . SVG Version: 6.00 Build 0)  -->
<svg version="1.1" id="Layer_1" xmlns="http://www.w3.org/2000/svg" xmlns:xlink="http://www.w3.org/1999/xlink" x="0px" y="0px"
	 viewBox="0 0 107.7 122.9" style="enable-background:new 0 0 107.7 122.9;" xml:space="preserve">
<style type="text/css">
	.st0{fill-rule:evenodd;clip-rule:evenodd;fill:#426696;}
</style>
<g>
	<path class="st0" d="M88.2,91.6c0-0.4,0-0.8,0-1.3s0-0.8,0-1.3c0.6,0,1-0.2,1.4-0.6c0.4-0.3,0.6-0.7,0.6-1.2c0-0.5-0.1-1-0.5-1.4
		c-0.4-0.4-1-0.6-1.8-0.7c-0.8-0.1-1.3,0.1-1.8,0.4s-0.7,0.8-0.8,1.4c-0.1,0.7,0.1,1.4,0.7,2c-0.2,0.7-0.4,1.4-0.6,2
		c-1.1-0.3-2.3-0.6-3.4-0.9c-1.1-0.3-2.2-0.6-3.3-0.9c0.3-1.1,0.6-2.2,0.8-3.4s0.6-2.2,0.8-3.4c0.7,0.1,1.4,0.1,2.1,0.2
		c-0.2,0.8-0.3,1.6-0.5,2.4c-0.2,0.8-0.3,1.6-0.5,2.4c0.7,0.2,1.4,0.4,2.1,0.6c-0.2-0.6-0.2-1.2-0.1-1.8c0.1-0.6,0.3-1.1,0.6-1.5
		s0.6-0.9,1.1-1.2c0.9-0.7,1.9-1,3-0.9c1,0.1,1.8,0.5,2.5,1.2c0.5,0.5,0.9,1,1.1,1.6c0.2,0.6,0.3,1.3,0.3,2.1c0,0.6-0.1,1.2-0.3,1.7
		c-0.2,0.5-0.5,0.9-0.8,1.3C90.3,91.1,89.3,91.5,88.2,91.6L88.2,91.6L88.2,91.6z M6.3,0h76.5c1.7,0,3.3,0.7,4.5,1.9
		c0,0,0.1,0.1,0.1,0.1c1.1,1.1,1.7,2.7,1.7,4.3v63.2c-0.9-0.1-1.9-0.1-2.8-0.1c-0.3,0-0.6,0-1,0V6.3c0-0.7-0.3-1.3-0.7-1.7l-0.1-0.1
		c-0.5-0.5-1.1-0.8-1.8-0.8H6.3C5.6,3.8,5,4.1,4.5,4.5l0,0C4.1,5,3.8,5.6,3.8,6.3v103.5c0,0.7,0.2,1.3,0.7,1.7l0.1,0.1
		c0.5,0.5,1.1,0.8,1.8,0.8h51.5v0.7c0,1.1,0.1,2.1,0.3,3.1H6.3c-1.7,0-3.3-0.7-4.5-1.8c0,0-0.1-0.1-0.1-0.1C0.7,113,0,111.5,0,109.8
		V6.3C0,4.6,0.7,3,1.9,1.9l0,0C3,0.7,4.6,0,6.3,0L6.3,0z M67.1,19.3h2.2v11.8h-2.2V19.3L67.1,19.3L67.1,19.3z M15.5,49h10.7
		c0.9,0,1.7,0.8,1.7,1.7v9c0,0.9-0.8,1.7-1.7,1.7H15.5c-0.9,0-1.7-0.8-1.7-1.7v-9C13.9,49.7,14.6,49,15.5,49L15.5,49L15.5,49z
		 M15.5,91.9h10.7c0.9,0,1.7,0.8,1.7,1.7v9c0,0.9-0.8,1.7-1.7,1.7H15.5c-0.9,0-1.7-0.8-1.7-1.7v-9C13.9,92.6,14.6,91.9,15.5,91.9
		L15.5,91.9L15.5,91.9L15.5,91.9z M15.5,70.4h10.7c0.9,0,1.7,0.8,1.7,1.7v9c0,0.9-0.8,1.7-1.7,1.7H15.5c-0.9,0-1.7-0.8-1.7-1.7v-9
		C13.9,71.2,14.6,70.4,15.5,70.4L15.5,70.4L15.5,70.4z M62.9,49h10.7c0.9,0,1.7,0.8,1.7,1.7v9c0,0.9-0.8,1.7-1.7,1.7H62.9
		c-0.9,0-1.7-0.8-1.7-1.7v-9C61.3,49.7,62,49,62.9,49L62.9,49L62.9,49z M62.9,70.4h10.7c0.5,0,0.9,0.2,1.2,0.5
		c-5.6,1.6-10.5,4.3-13.6,8.2v-7C61.3,71.2,62,70.4,62.9,70.4L62.9,70.4L62.9,70.4z M39.2,49h10.7c0.9,0,1.7,0.8,1.7,1.7v9
		c0,0.9-0.8,1.7-1.7,1.7H39.2c-0.9,0-1.7-0.8-1.7-1.7v-9C37.6,49.7,38.3,49,39.2,49L39.2,49L39.2,49z M39.2,91.9h10.7
		c0.9,0,1.7,0.8,1.7,1.7v9c0,0.9-0.8,1.7-1.7,1.7H39.2c-0.9,0-1.7-0.8-1.7-1.7v-9C37.6,92.6,38.3,91.9,39.2,91.9L39.2,91.9
		L39.2,91.9z M39.2,70.4h10.7c0.9,0,1.7,0.8,1.7,1.7v9c0,0.9-0.8,1.7-1.7,1.7H39.2c-0.9,0-1.7-0.8-1.7-1.7v-9
		C37.6,71.2,38.3,70.4,39.2,70.4L39.2,70.4L39.2,70.4z M14.1,12.3H75c0.9,0,1.8,0.4,2.4,1c0.1,0.1,0.1,0.1,0.1,0.1
		c0.5,0.6,0.8,1.4,0.8,2.2v19c0,0.9-0.4,1.8-1,2.4l0,0c-0.6,0.6-1.4,1-2.4,1H14.1c-0.9,0-1.8-0.4-2.4-1c-0.1,0-0.1-0.1-0.1-0.2
		c-0.5-0.6-0.8-1.4-0.8-2.2v-19c0-0.9,0.4-1.7,1-2.4l0,0C12.4,12.7,13.2,12.3,14.1,12.3L14.1,12.3z M74.6,16.1h-60v18.2h60V16.1
		L74.6,16.1z M106.7,108.1c0.6,1.1,1,2.2,1,3.4c0,6.3-9.7,11.4-21.7,11.4s-21.7-5.1-21.7-11.4c0-1.2,0.3-2.3,1-3.4
		c2.8,4.6,11,8,20.7,8C95.7,116.1,103.9,112.7,106.7,108.1L106.7,108.1L106.7,108.1z M86,80.1c9.9,0,17.9,3.1,17.9,7
		c0,3.9-8,7-17.9,7s-17.9-3.1-17.9-7C68.1,83.3,76.1,80.1,86,80.1L86,80.1L86,80.1L86,80.1z M86,77.8c12,0,21.7,5.1,21.7,11.4
		S98,100.6,86,100.6c-12,0-21.7-5.1-21.7-11.4C64.2,82.9,74,77.8,86,77.8L86,77.8L86,77.8z M106.8,96.8c0.6,1,0.9,2.1,0.9,3.3
		c0,6.3-9.7,11.4-21.7,11.4s-21.7-5.1-21.7-11.4c0-1.1,0.3-2.2,0.9-3.3c2.7,4.7,11,8.1,20.8,8.1C95.8,104.9,104.1,101.5,106.8,96.8
		L106.8,96.8L106.8,96.8L106.8,96.8z"/>
</g>
</svg>
