<?xml version="1.0" encoding="utf-8"?>
<!-- Generator: Adobe Illustrator 24.1.2, SVG Export Plug-In . SVG Version: 6.00 Build 0)  -->
<svg version="1.1" id="Layer_1" xmlns="http://www.w3.org/2000/svg" xmlns:xlink="http://www.w3.org/1999/xlink" x="0px" y="0px"
	 viewBox="0 0 95.9 122.9" style="enable-background:new 0 0 95.9 122.9;" xml:space="preserve">
<style type="text/css">
	.st0{fill-rule:evenodd;clip-rule:evenodd;fill:#426696;}
</style>
<g>
	<path class="st0" d="M21,75.6h54c0.8,0,1.6,0.7,1.6,1.6v35.8c0,0.8-0.7,1.6-1.6,1.6H21c-0.9,0-1.5-0.7-1.5-1.6V77.1
		C19.4,76.3,20.1,75.6,21,75.6L21,75.6L21,75.6z M46.6,48h2.7v2.7h-2.7V48L46.6,48z M46.6,42.5h2.7v2.7h-2.7V42.5L46.6,42.5z
		 M5.7,90.5v-2.7h2.7v2.7H5.7L5.7,90.5z M50,56.7V54h2.7v2.7H50L50,56.7z M55.4,56.7V54h2.7v2.7H55.4L55.4,56.7z M60.9,56.7V54h2.7
		v2.7H60.9L60.9,56.7z M66.3,56.7V54h2.7v2.7H66.3L66.3,56.7z M71.8,56.7V54h2.7v2.7H71.8L71.8,56.7z M77.3,56.7V54H80v2.7H77.3
		L77.3,56.7z M82.7,56.7V54h2.7v2.7H82.7L82.7,56.7z M88.2,56.7V54h2.7v2.7H88.2L88.2,56.7z M93.6,54.9V54h0.9h1.4v1.4v1.8h-2.7
		v-1.8L93.6,54.9L93.6,54.9z M93.2,59.9h2.7v2.7h-2.7V59.9L93.2,59.9z M93.2,65.4h2.7v2.7h-2.7V65.4L93.2,65.4z M93.2,70.8h2.7v2.7
		h-2.7V70.8L93.2,70.8z M93.2,76.3h2.7V79h-2.7V76.3L93.2,76.3z M93.2,81.7h2.7v2.7h-2.7V81.7L93.2,81.7z M94.6,87.2h1.3v1.3v1.4
		h-1.4h-1.4v-2.7L94.6,87.2L94.6,87.2L94.6,87.2z M90.4,87.1v2.7h-2.7v-2.7H90.4L90.4,87.1z M45,54v2.7h-2.7V54H45L45,54z M39.6,54
		v2.7h-2.7V54H39.6L39.6,54z M34.1,54v2.7h-2.7V54H34.1L34.1,54z M28.7,54v2.7h-2.7V54H28.7L28.7,54z M23.2,54v2.7h-2.7V54H23.2
		L23.2,54z M17.8,54v2.7H15V54H17.8L17.8,54z M12.3,54v2.7H9.6V54H12.3L12.3,54z M6.8,54v2.7H4.1V54H6.8L6.8,54z M1.4,54L1.4,54
		l1.3,1.4v2.7H0v-2.7V54L1.4,54L1.4,54L1.4,54z M0,60.8h2.7v2.7H0V60.8L0,60.8z M0,66.2h2.7V69H0V66.2L0,66.2z M0,71.7h2.7v2.7H0
		V71.7L0,71.7z M0,77.2h2.7v2.7H0V77.2L0,77.2z M0,82.6h2.7v2.7H0V82.6L0,82.6z M0,88.1h1.1l0.3-0.3H3v2.7H1.4H0v-1.4V88.1L0,88.1z
		 M59.8,14.2c-0.4,0.2-0.7,0.4-1.1,0.6c-1.1,0.6-2.1,1.4-3.2,2.3l-2.3-2.6c0.8-0.7,1.7-1.4,2.6-2c0.7-0.5,1.5-0.9,2.3-1.3
		c0.3-0.2,0.6-0.3,1-0.4c-1.5-2.7-3.7-4.6-6.2-5.8c-2.5-1.2-5.2-1.6-7.9-1.4c-2.7,0.3-5.3,1.2-7.4,2.9c-2.5,1.9-4.4,4.8-5.1,8.6
		l-0.2,1.2L31,16.4c-1.2,0.2-2.2,0.5-3.1,0.8c-0.9,0.3-1.7,0.8-2.4,1.3c-0.5,0.4-1,0.8-1.4,1.3c-1.3,1.5-1.8,3.4-1.8,5.3
		c0,1.9,0.6,3.9,1.8,5.5c0.4,0.6,0.9,1.1,1.5,1.6c0.6,0.5,1.2,0.9,2,1.2c0.7,0.3,1.5,0.5,2.4,0.6h34.4c1.7-0.4,3.2-1,4.4-1.7
		c1.3-0.7,2.3-1.5,3-2.6c1.2-1.6,1.8-3.8,1.8-6.1c0-2.4-0.6-4.8-1.7-6.6c-0.3-0.5-0.7-1-1.1-1.4c-1.7-1.8-3.9-2.7-6.1-2.7
		C63,13.1,61.4,13.5,59.8,14.2L59.8,14.2L59.8,14.2z M62.4,9.8c0.8-0.1,1.5-0.2,2.3-0.2c3.2,0,6.3,1.2,8.7,3.8
		c0.5,0.6,1,1.2,1.4,1.9c1.5,2.3,2.3,5.4,2.3,8.5c0,3-0.8,6-2.5,8.2c-1.1,1.4-2.5,2.6-4.1,3.5c-1.6,0.9-3.4,1.6-5.5,2l-0.4,0H29.9
		l-0.2,0c-1.3-0.2-2.4-0.5-3.5-0.9c-1.1-0.4-2-1-2.9-1.7c-0.8-0.7-1.5-1.4-2.1-2.2c-1.6-2.2-2.4-4.9-2.5-7.5c0-2.7,0.8-5.4,2.6-7.5
		c0.6-0.7,1.3-1.3,2.1-1.9c0.9-0.7,2-1.2,3.1-1.7c0.8-0.3,1.7-0.6,2.6-0.8c1-4.1,3.3-7.3,6.1-9.6c2.7-2.1,5.9-3.3,9.2-3.6
		c3.3-0.3,6.7,0.2,9.7,1.7C57.7,3.4,60.5,6.1,62.4,9.8L62.4,9.8L62.4,9.8z M40.9,116.6H55c0,2.4,1,4.6,3.8,6.3H37.2
		C39.3,121.3,40.9,119.4,40.9,116.6L40.9,116.6L40.9,116.6z M47.9,109.2c1.1,0,2,0.9,2,2s-0.9,2-2,2c-1.1,0-2-0.9-2-2
		C46,110.1,46.8,109.2,47.9,109.2L47.9,109.2z M24.1,78.5h47.7c0.8,0,1.4,0.6,1.4,1.4v26.7c0,0.8-0.6,1.4-1.4,1.4H24.1
		c-0.8,0-1.4-0.6-1.4-1.4V79.8C22.7,79.1,23.3,78.5,24.1,78.5L24.1,78.5L24.1,78.5z"/>
</g>
</svg>
