<?xml version="1.0" encoding="utf-8"?>
<!-- Generator: Adobe Illustrator 24.1.2, SVG Export Plug-In . SVG Version: 6.00 Build 0)  -->
<svg version="1.1" id="Layer_1" xmlns="http://www.w3.org/2000/svg" xmlns:xlink="http://www.w3.org/1999/xlink" x="0px" y="0px"
	 viewBox="0 0 122.9 78.2" style="enable-background:new 0 0 122.9 78.2;" xml:space="preserve">
<style type="text/css">
	.st0{fill-rule:evenodd;clip-rule:evenodd;fill:#426696;}
</style>
<path class="st0" d="M11.2,58h17v4.1h-17V58z M86.6,45c3.1,0,6,1.5,7.9,4c3.2-4.4,9.4-5.3,13.8-2c4.4,3.2,5.3,9.4,2,13.8
	c-3.2,4.4-9.4,5.3-13.8,2c-0.8-0.6-1.5-1.3-2-2c-3.3,4.3-9.4,5.2-13.8,1.9s-5.2-9.4-1.9-13.8C80.6,46.5,83.6,45,86.6,45z
	 M116.1,74.3c1.6,0,2.8-1.3,2.9-2.8V34H3.9v37.5c0,0.8,0.3,1.5,0.8,2c0.5,0.5,1.2,0.8,2,0.8L116.1,74.3z M6.7,78.2
	c-1.8,0-3.5-0.7-4.8-2c-1.3-1.2-2-3-2-4.8V6.7C0,3,3,0,6.7,0c0,0,0,0,0.1,0h109.4c3.7,0,6.7,3,6.8,6.7v64.7c0,1.8-0.7,3.5-2,4.8
	c-1.3,1.3-3,2-4.8,2C79.6,78.2,43.2,78.2,6.7,78.2L6.7,78.2z M3.9,14.6H119V6.7c0-0.8-0.3-1.5-0.9-2c-0.5-0.5-1.2-0.9-2-0.9H6.7
	c-0.8,0-1.5,0.3-2,0.9C4.2,5.3,3.9,6,3.9,6.7L3.9,14.6L3.9,14.6z M36.1,58h28.3v4.1H36.1V58z"/>
</svg>
