<?xml version="1.0" encoding="utf-8"?>
<!-- Generator: Adobe Illustrator 24.1.2, SVG Export Plug-In . SVG Version: 6.00 Build 0)  -->
<svg version="1.1" id="Layer_1" xmlns="http://www.w3.org/2000/svg" xmlns:xlink="http://www.w3.org/1999/xlink" x="0px" y="0px"
	 viewBox="0 0 117.9 122.9" style="enable-background:new 0 0 117.9 122.9;" xml:space="preserve">
<style type="text/css">
	.st0{fill-rule:evenodd;clip-rule:evenodd;fill:#426696;}
</style>
<g>
	<path class="st0" d="M28.5,99.4c5.5-7.2,10.2-3.9,16.8,0.8c0.2,0.1,0.3,0.2,1,0.7c2.2,1.6,4.6-0.5,6.8-2.5c1-0.9,2-1.7,3-2.4
		l1.5,2.4c-0.8,0.5-1.7,1.3-2.6,2.1c-3.1,2.7-6.3,5.6-10.4,2.7l-1-0.7c-5.3-3.7-9.1-6.3-12.9-1.4L28.5,99.4L28.5,99.4L28.5,99.4z
		 M90.6,3.2c-1.5,1.6-2.3,3.3-2.6,5c-0.4,1.9-0.1,3.9,0.6,5.9l0.7,2.1H17.9v94.2h0c0,3.4,0.7,5.9,2.2,7.4c1.5,1.5,3.8,2,7.1,1.7
		l0.2,0h72V12.9l0-0.1c0.2-4.1-0.7-6.5-2.4-7.8C95.5,3.7,93.3,3.3,90.6,3.2L90.6,3.2L90.6,3.2z M14.8,16.2H0l0.1-1.6
		c0.1-3.3,0.8-6.3,2.2-8.7c1.5-2.5,3.8-4.5,7.1-5.7L9.9,0h83.7l-0.3,0.3c2.2,0.3,4.1,1,5.7,2.3c2.4,2,3.7,5.2,3.5,10.3l0,0v93.6
		h11.2c1.2,0,0.2,0,0.6,0c1.6,0,2.4,0,3.1,0.9c0.5,0.7,0.5,1.3,0.4,2.4c0,0.4,0,0.8,0,1.5c0,5.5-1.9,8.7-5.1,10.3
		c-2.8,1.4-6.6,1.6-11,1H27.5c-4.2,0.4-7.4-0.4-9.6-2.6c-2.1-2.1-3.2-5.4-3.2-9.7h0L14.8,16.2L14.8,16.2L14.8,16.2z M84.9,7.6
		c0.3-1.5,0.9-3,1.8-4.4H10.2C7.8,4.1,6.1,5.5,5,7.4C4.1,9,3.5,10.9,3.3,13H85C84.6,11.2,84.5,9.4,84.9,7.6L84.9,7.6L84.9,7.6z
		 M102.6,109.6v9.9c3.5,0.4,6.5,0.3,8.6-0.8c2.1-1.1,3.4-3.4,3.4-7.5c0-0.6,0-1.2,0.1-1.7c0-0.4,0.4-0.1,0.2-0.3
		c-0.3-0.3,0,0.3-0.6,0.3c-0.7,0,0.2,0-0.6,0L102.6,109.6L102.6,109.6L102.6,109.6z M29.7,31.9c-0.9,0-1.6-0.7-1.6-1.6
		c0-0.9,0.7-1.6,1.6-1.6h45.5c0.9,0,1.6,0.7,1.6,1.6c0,0.9-0.7,1.6-1.6,1.6H29.7L29.7,31.9z M29.7,48c-0.9,0-1.6-0.7-1.6-1.6
		s0.7-1.6,1.6-1.6h55.8c0.9,0,1.6,0.7,1.6,1.6S86.3,48,85.4,48H29.7L29.7,48z M29.7,64.2c-0.9,0-1.6-0.7-1.6-1.6s0.7-1.6,1.6-1.6
		h44.6c0.9,0,1.6,0.7,1.6,1.6c0,0.9-0.7,1.6-1.6,1.6H29.7L29.7,64.2z M29.7,80.3c-0.9,0-1.6-0.7-1.6-1.6s0.7-1.6,1.6-1.6h23.1
		c0.9,0,1.6,0.7,1.6,1.6s-0.7,1.6-1.6,1.6H29.7L29.7,80.3z M79.7,76.6c0.6,0,1.1,0.2,1.6,0.5c0.6,0.4,1.3,1.2,2.2,1.7
		c1.2,0.7,3.5-0.3,4.7,1.5c0.7,1,0.7,1.8,0.8,2.6c0.1,0.8,0.2,1.6,1.1,2.8c1.4,1.9,1.7,3.2,1,4.5c-0.5,0.9-1.6,1.4-1.8,2
		c-0.5,1.2,0.1,2.1-0.7,3.6c-0.5,1-1.3,1.6-2.3,2c-0.9,0.3-1.7-0.1-2.4,0.2c-1.2,0.5-2.1,1.7-3.1,2c-0.4,0.1-0.8,0.2-1.1,0.2
		s-0.8-0.1-1.1-0.2c-1-0.3-1.9-1.5-3.1-2c-0.7-0.3-1.6,0.1-2.4-0.2c-1-0.3-1.8-1-2.3-2c-0.7-1.4-0.1-2.3-0.7-3.6
		c-0.3-0.6-1.3-1.1-1.8-2c-0.8-1.3-0.4-2.6,1-4.5c0.9-1.2,1-1.9,1.1-2.8c0.1-0.8,0.1-1.6,0.8-2.6c1.2-1.8,3.5-0.8,4.7-1.5
		c0.9-0.5,1.6-1.3,2.2-1.7C78.6,76.8,79.1,76.6,79.7,76.6L79.7,76.6L79.7,76.6z M79.7,81.3c3.9,0,7,3.1,7,7s-3.1,7-7,7s-7-3.1-7-7
		C72.7,84.4,75.8,81.3,79.7,81.3L79.7,81.3z"/>
</g>
</svg>
