<?xml version="1.0" encoding="utf-8"?>
<!-- Generator: Adobe Illustrator 24.1.2, SVG Export Plug-In . SVG Version: 6.00 Build 0)  -->
<svg version="1.1" id="Layer_1" xmlns="http://www.w3.org/2000/svg" xmlns:xlink="http://www.w3.org/1999/xlink" x="0px" y="0px"
	 viewBox="0 0 122.9 122.9" style="enable-background:new 0 0 122.9 122.9;" xml:space="preserve">
<style type="text/css">
	.st0{fill-rule:evenodd;clip-rule:evenodd;fill:#426696;}
</style>
<g>
	<path class="st0" d="M61.4,0c17,0,32.3,6.9,43.4,18c11.1,11.1,18,26.5,18,43.4c0,17-6.9,32.3-18,43.5s-26.5,18-43.4,18
		s-32.3-6.9-43.4-18C6.9,93.8,0,78.4,0,61.4c0-17,6.9-32.3,18-43.4C29.1,6.9,44.5,0,61.4,0L61.4,0z M78.6,48.7l-11.1,1.8
		C66.9,49,66.4,48,66,47.5c-0.4-0.5-1.2-1.1-2.2-1.6v8.6c6,1.6,10.1,3.3,12.1,5.1c2.7,2.4,4,5.5,4,9.1c0,2.2-0.5,4.2-1.4,5.9
		c-1,1.8-2.2,3.3-3.7,4.5c-1.5,1.2-3.1,2.1-4.8,2.6c-1.7,0.6-3.8,0.9-6.2,1v4h-4.3v-4c-2.9-0.3-5.3-0.7-7.1-1.4
		c-1.8-0.7-3.4-1.6-4.7-2.8c-1.3-1.2-2.3-2.5-3-3.9s-1.3-3.1-1.6-5.1l12-1.4c0.4,1.9,0.8,3.4,1.5,4.2c0.6,0.9,1.6,1.6,3,2.3V64.2
		c-4-1.1-6.9-2.1-8.5-2.9s-3.1-2.1-4.4-3.9c-1.2-1.8-1.8-4-1.8-6.6c0-3.5,1.2-6.5,3.7-8.9c2.5-2.4,6.2-3.7,11-4v-1.9h4.3V38
		c4.4,0.3,7.8,1.3,10.2,3.2C76.3,43,77.9,45.5,78.6,48.7L78.6,48.7z M59.5,45.7c-1.3,0.4-2.2,0.9-2.7,1.5S56,48.6,56,49.4
		c0,0.9,0.3,1.6,0.8,2.3c0.5,0.7,1.4,1.2,2.7,1.6V45.7L59.5,45.7z M63.8,75c1.7-0.4,2.9-1,3.7-1.9s1.2-1.8,1.2-2.9
		c0-0.9-0.3-1.8-1-2.6c-0.7-0.8-2-1.5-3.9-2.2L63.8,75L63.8,75z M61.4,17.2c24.4,0,44.2,19.8,44.2,44.2c0,24.4-19.8,44.2-44.2,44.2
		S17.2,85.8,17.2,61.4C17.2,37,37,17.2,61.4,17.2L61.4,17.2z M61.4,8.7c29.1,0,52.7,23.6,52.7,52.7c0,29.1-23.6,52.7-52.7,52.7
		c-29.1,0-52.7-23.6-52.7-52.7C8.7,32.3,32.3,8.7,61.4,8.7L61.4,8.7z"/>
</g>
</svg>
