<?xml version="1.0" encoding="utf-8"?>
<!-- Generator: Adobe Illustrator 24.1.2, SVG Export Plug-In . SVG Version: 6.00 Build 0)  -->
<svg version="1.1" id="Layer_1" xmlns="http://www.w3.org/2000/svg" xmlns:xlink="http://www.w3.org/1999/xlink" x="0px" y="0px"
	 viewBox="0 0 122.9 122.9" style="enable-background:new 0 0 122.9 122.9;" xml:space="preserve">
<style type="text/css">
	.st0{fill-rule:evenodd;clip-rule:evenodd;fill:#426696;}
</style>
<g>
	<path class="st0" d="M61.4,0c17,0,32.3,6.9,43.4,18c11.1,11.1,18,26.5,18,43.4c0,17-6.9,32.3-18,43.5s-26.5,18-43.4,18
		s-32.3-6.9-43.4-18C6.9,93.8,0,78.4,0,61.4c0-17,6.9-32.3,18-43.4C29.1,6.9,44.5,0,61.4,0L61.4,0z M69.4,63.1L68,69.2H57.8
		c1.3,4.1,4.2,6.2,8.5,6.2c4.8,0,9.3-1.6,13.5-4.6v12.4c-3.5,2.4-7.7,3.6-12.6,3.6c-7.9,0-13.8-1.8-17.6-5.4
		c-3.8-3.6-6.1-7.7-7-12.1h-6l1.6-6.1H42c0-0.3-0.1-0.9-0.1-1.8c0-0.9,0-1.5,0.1-1.9h-4.5l1.6-6.1h3.6c2.9-11.4,10.8-17.1,23.8-17.1
		c4.2,0,8.6,1.1,12.9,3.4l-3,12.1c-3-2.8-6.2-4.2-9.5-4.2c-4.3,0-7.2,1.9-8.8,5.8h12l-1.5,6.1H57.1c0,0.4-0.1,1.1-0.1,1.9v1.8
		L69.4,63.1L69.4,63.1z M61.4,17.2c24.4,0,44.2,19.8,44.2,44.2c0,24.4-19.8,44.2-44.2,44.2S17.2,85.8,17.2,61.4
		C17.2,37,37,17.2,61.4,17.2L61.4,17.2z M61.4,8.7c29.1,0,52.7,23.6,52.7,52.7c0,29.1-23.6,52.7-52.7,52.7
		c-29.1,0-52.7-23.6-52.7-52.7C8.7,32.3,32.3,8.7,61.4,8.7L61.4,8.7z"/>
</g>
</svg>
