<?xml version="1.0" encoding="utf-8"?>
<!-- Generator: Adobe Illustrator 24.1.2, SVG Export Plug-In . SVG Version: 6.00 Build 0)  -->
<svg version="1.1" id="Layer_1" xmlns="http://www.w3.org/2000/svg" xmlns:xlink="http://www.w3.org/1999/xlink" x="0px" y="0px"
	 viewBox="0 0 121.7 122.9" style="enable-background:new 0 0 121.7 122.9;" xml:space="preserve">
<style type="text/css">
	.st0{fill:#426696;}
</style>
<g>
	<path class="st0" d="M53.6,0c14.8,0,28.2,6,37.9,15.7c9.7,9.7,15.7,23.1,15.7,37.9c0,10.8-3.2,20.9-8.7,29.3l23.2,25.3l-16,14.6
		L83.3,98.3c-8.5,5.7-18.7,9-29.7,9c-14.8,0-28.2-6-37.9-15.7C6,81.8,0,68.4,0,53.6c0-14.8,6-28.2,15.7-37.9C25.4,6,38.8,0,53.6,0
		L53.6,0z M62.4,30.7H48.3c-0.1,0-0.2,0-0.2,0.1C48,30.8,48,30.9,48,31v3.2h14.7V31c0-0.1,0-0.2-0.1-0.2
		C62.5,30.7,62.5,30.7,62.4,30.7L62.4,30.7L62.4,30.7z M28.4,34.3H44v-4.5c0-0.7,0.3-1.3,0.7-1.7s1.1-0.7,1.7-0.7h17.8
		c0.7,0,1.3,0.3,1.7,0.7c0.4,0.4,0.7,1.1,0.7,1.7v4.5h15.6c1,0,1.8,0.4,2.4,1c0.6,0.6,1,1.5,1,2.4v8.9c-3.8,2.6-7.8,4.8-11.9,6.7
		c-4.5,2-9.1,3.5-13.9,4.5v-3.2c0-0.7-0.3-1.3-0.7-1.7c-0.4-0.4-1-0.7-1.7-0.7h-4.5l0,0c-0.7,0-1.3,0.3-1.7,0.7
		c-0.4,0.4-0.7,1-0.7,1.7v3.2c-4.7-1-9.2-2.5-13.6-4.5c-4.2-1.9-8.2-4.2-12.2-6.9v-8.7c0-1,0.4-1.8,1-2.4
		C26.6,34.7,27.5,34.3,28.4,34.3L28.4,34.3L28.4,34.3z M85.7,50.4v23.2c0,1-0.4,1.8-1,2.4c-0.6,0.6-1.5,1-2.4,1H28.4
		c-1,0-1.8-0.4-2.4-1c-0.6-0.6-1-1.5-1-2.4V50.2c3.5,2.2,7.1,4.2,10.7,5.9c4.7,2.1,9.6,3.7,14.6,4.8c0.1,0,0.2,0,0.4,0v3.2
		c0,0.7,0.3,1.3,0.7,1.7c0.4,0.4,1,0.7,1.7,0.7h4.5c0.7,0,1.3-0.3,1.7-0.7c0.4-0.4,0.7-1,0.7-1.7v-3.2c0.2,0,0.5,0,0.7,0
		c5.1-1.1,9.9-2.7,14.6-4.8C78.9,54.5,82.3,52.6,85.7,50.4L85.7,50.4z M87.3,19.9C78.7,11.3,66.8,6,53.6,6c-13.1,0-25.1,5.4-33.7,14
		S6,40.5,6,53.6s5.4,25.1,14,33.7c8.6,8.6,20.5,14,33.7,14c13.1,0,25.1-5.3,33.7-14c8.6-8.6,14-20.5,14-33.7S95.9,28.6,87.3,19.9
		L87.3,19.9L87.3,19.9z"/>
</g>
</svg>
