<?xml version="1.0" encoding="utf-8"?>
<!-- Generator: Adobe Illustrator 24.1.2, SVG Export Plug-In . SVG Version: 6.00 Build 0)  -->
<svg version="1.1" id="Layer_1" xmlns="http://www.w3.org/2000/svg" xmlns:xlink="http://www.w3.org/1999/xlink" x="0px" y="0px"
	 viewBox="0 0 122.9 122.9" style="enable-background:new 0 0 122.9 122.9;" xml:space="preserve">
<style type="text/css">
	.st0{fill-rule:evenodd;clip-rule:evenodd;fill:#426696;}
</style>
<g>
	<path class="st0" d="M61.4,0c33.9,0,61.4,27.5,61.4,61.4s-27.5,61.4-61.4,61.4S0,95.4,0,61.4S27.5,0,61.4,0L61.4,0z M70.7,34.4
		c3.9-8.5,12.5-3.5,9.4,2.1L52.2,88c-4.4,9.6-12.4,3.4-9.5-2.1L70.7,34.4L70.7,34.4z M27.7,46.8c0-2.3,0.5-4.5,1.5-6.6
		c1-2.1,2.6-3.7,4.7-4.8c2.1-1.1,4.5-1.7,7.4-1.7c4.2,0,7.5,1.2,9.9,3.6s3.6,5.6,3.6,9.6c0,4-1.2,7.2-3.6,9.6
		c-2.4,2.4-5.7,3.6-9.9,3.6c-2.9,0-5.3-0.6-7.4-1.7c-2.1-1.1-3.6-2.7-4.7-4.8C28.2,51.4,27.7,49.2,27.7,46.8L27.7,46.8z M37.3,46.9
		c0,2.8,0.5,4.8,1.4,6.1c0.6,0.8,1.5,1.3,2.6,1.3c1.1,0,2-0.4,2.6-1.3c0.9-1.3,1.4-3.3,1.4-6.1c0-2.8-0.5-4.8-1.4-6.1
		c-0.6-0.8-1.4-1.2-2.6-1.2c-1.1,0-2,0.4-2.6,1.2C37.8,42.1,37.3,44.1,37.3,46.9L37.3,46.9z M68.1,77.4c0-2.3,0.5-4.6,1.5-6.7
		c1-2.1,2.6-3.7,4.7-4.8c2.1-1.1,4.6-1.7,7.4-1.7c4.2,0,7.5,1.2,9.9,3.6c2.4,2.4,3.6,5.6,3.6,9.6S94,84.6,91.6,87
		c-2.4,2.4-5.7,3.6-9.9,3.6c-2.8,0-5.3-0.6-7.4-1.7c-2.1-1.1-3.6-2.8-4.7-4.8C68.6,82,68.1,79.8,68.1,77.4L68.1,77.4z M77.7,77.5
		c0,2.8,0.5,4.9,1.4,6.2c0.6,0.8,1.4,1.2,2.6,1.2c1.1,0,2-0.4,2.6-1.2c0.9-1.3,1.4-3.3,1.4-6.2c0-2.8-0.4-4.9-1.4-6.2
		c-0.6-0.8-1.5-1.2-2.6-1.2c-1.1,0-2,0.4-2.6,1.3C78.1,72.7,77.7,74.7,77.7,77.5L77.7,77.5z"/>
</g>
</svg>
