<?xml version="1.0" encoding="utf-8"?>
<!-- Generator: Adobe Illustrator 24.1.2, SVG Export Plug-In . SVG Version: 6.00 Build 0)  -->
<svg version="1.1" id="Layer_1" xmlns="http://www.w3.org/2000/svg" xmlns:xlink="http://www.w3.org/1999/xlink" x="0px" y="0px"
	 viewBox="0 0 122.9 122.9" style="enable-background:new 0 0 122.9 122.9;" xml:space="preserve">
<style type="text/css">
	.st0{fill-rule:evenodd;clip-rule:evenodd;fill:#426696;}
</style>
<g>
	<path class="st0" d="M61.4,0c17,0,32.3,6.9,43.4,18c11.1,11.1,18,26.5,18,43.4c0,17-6.9,32.3-18,43.5s-26.5,18-43.4,18
		s-32.3-6.9-43.4-18C6.9,93.8,0,78.4,0,61.4c0-17,6.9-32.3,18-43.4C29.1,6.9,44.5,0,61.4,0L61.4,0z M39.2,37.6H54l7.5,16.1l7.3-16.1
		h14.9L72.3,58.2l-4,7.2v3.9H82v7.3H68.3v8.7H54.8v-8.7H40.9v-7.3h13.9v-3.9l-4-7.2L39.2,37.6L39.2,37.6z M61.4,17.2
		c24.4,0,44.2,19.8,44.2,44.2c0,24.4-19.8,44.2-44.2,44.2S17.2,85.8,17.2,61.4C17.2,37,37,17.2,61.4,17.2L61.4,17.2z M61.4,8.7
		c29.1,0,52.7,23.6,52.7,52.7c0,29.1-23.6,52.7-52.7,52.7c-29.1,0-52.7-23.6-52.7-52.7C8.7,32.3,32.3,8.7,61.4,8.7L61.4,8.7z"/>
</g>
</svg>
